<mxfile host="app.diagrams.net" agent="Mozilla/5.0 (X11; Linux x86_64; rv:131.0) Gecko/20100101 Firefox/131.0" version="24.8.3">
  <diagram id="C5RBs43oDa-KdzZeNtuy" name="Page-1">
    <mxGraphModel dx="614" dy="830" grid="1" gridSize="10" guides="1" tooltips="1" connect="1" arrows="1" fold="1" page="1" pageScale="1" pageWidth="827" pageHeight="1169" math="0" shadow="0">
      <root>
        <mxCell id="WIyWlLk6GJQsqaUBKTNV-0" />
        <mxCell id="WIyWlLk6GJQsqaUBKTNV-1" parent="WIyWlLk6GJQsqaUBKTNV-0" />
        <mxCell id="VmMaW-UGEGGp3QC6a1T2-12" style="edgeStyle=none;curved=1;rounded=0;orthogonalLoop=1;jettySize=auto;html=1;entryX=0;entryY=0.5;entryDx=0;entryDy=0;fontSize=12;startSize=8;endSize=8;" edge="1" parent="WIyWlLk6GJQsqaUBKTNV-1" source="VmMaW-UGEGGp3QC6a1T2-0" target="VmMaW-UGEGGp3QC6a1T2-1">
          <mxGeometry relative="1" as="geometry" />
        </mxCell>
        <mxCell id="VmMaW-UGEGGp3QC6a1T2-0" value="&quot;parallel Franzensfeste&quot;" style="rounded=0;whiteSpace=wrap;html=1;" vertex="1" parent="WIyWlLk6GJQsqaUBKTNV-1">
          <mxGeometry x="100" y="70" width="120" height="60" as="geometry" />
        </mxCell>
        <mxCell id="VmMaW-UGEGGp3QC6a1T2-1" value="&lt;div&gt;Government curated Franzensfeste&lt;/div&gt;" style="rounded=0;whiteSpace=wrap;html=1;" vertex="1" parent="WIyWlLk6GJQsqaUBKTNV-1">
          <mxGeometry x="280" y="70" width="120" height="60" as="geometry" />
        </mxCell>
        <mxCell id="VmMaW-UGEGGp3QC6a1T2-14" style="edgeStyle=none;curved=1;rounded=0;orthogonalLoop=1;jettySize=auto;html=1;exitX=1;exitY=0.5;exitDx=0;exitDy=0;entryX=0;entryY=0.5;entryDx=0;entryDy=0;fontSize=12;startSize=8;endSize=8;" edge="1" parent="WIyWlLk6GJQsqaUBKTNV-1" source="VmMaW-UGEGGp3QC6a1T2-2" target="VmMaW-UGEGGp3QC6a1T2-3">
          <mxGeometry relative="1" as="geometry" />
        </mxCell>
        <mxCell id="VmMaW-UGEGGp3QC6a1T2-22" style="edgeStyle=none;curved=1;rounded=0;orthogonalLoop=1;jettySize=auto;html=1;exitX=0.5;exitY=1;exitDx=0;exitDy=0;entryX=0.5;entryY=0;entryDx=0;entryDy=0;fontSize=12;startSize=8;endSize=8;" edge="1" parent="WIyWlLk6GJQsqaUBKTNV-1" source="VmMaW-UGEGGp3QC6a1T2-2" target="VmMaW-UGEGGp3QC6a1T2-4">
          <mxGeometry relative="1" as="geometry">
            <Array as="points">
              <mxPoint x="390" y="230" />
              <mxPoint x="430" y="280" />
              <mxPoint x="400" y="330" />
            </Array>
          </mxGeometry>
        </mxCell>
        <mxCell id="VmMaW-UGEGGp3QC6a1T2-25" style="edgeStyle=none;curved=1;rounded=0;orthogonalLoop=1;jettySize=auto;html=1;exitX=0.5;exitY=1;exitDx=0;exitDy=0;fontSize=12;startSize=8;endSize=8;" edge="1" parent="WIyWlLk6GJQsqaUBKTNV-1" source="VmMaW-UGEGGp3QC6a1T2-2" target="VmMaW-UGEGGp3QC6a1T2-4">
          <mxGeometry relative="1" as="geometry">
            <Array as="points">
              <mxPoint x="220" y="250" />
            </Array>
          </mxGeometry>
        </mxCell>
        <mxCell id="VmMaW-UGEGGp3QC6a1T2-2" value="&lt;div&gt;Event horizon&lt;/div&gt;" style="rounded=0;whiteSpace=wrap;html=1;" vertex="1" parent="WIyWlLk6GJQsqaUBKTNV-1">
          <mxGeometry x="190" y="160" width="120" height="60" as="geometry" />
        </mxCell>
        <mxCell id="VmMaW-UGEGGp3QC6a1T2-15" style="edgeStyle=none;curved=1;rounded=0;orthogonalLoop=1;jettySize=auto;html=1;fontSize=12;startSize=8;endSize=8;entryX=1;entryY=0.5;entryDx=0;entryDy=0;" edge="1" parent="WIyWlLk6GJQsqaUBKTNV-1" source="VmMaW-UGEGGp3QC6a1T2-3" target="VmMaW-UGEGGp3QC6a1T2-10">
          <mxGeometry relative="1" as="geometry">
            <mxPoint x="550" y="470" as="targetPoint" />
            <Array as="points">
              <mxPoint x="660" y="300" />
            </Array>
          </mxGeometry>
        </mxCell>
        <mxCell id="VmMaW-UGEGGp3QC6a1T2-3" value="&lt;div&gt;&quot;Dome&quot; / Barrier&lt;/div&gt;" style="whiteSpace=wrap;html=1;" vertex="1" parent="WIyWlLk6GJQsqaUBKTNV-1">
          <mxGeometry x="370" y="160" width="120" height="60" as="geometry" />
        </mxCell>
        <mxCell id="VmMaW-UGEGGp3QC6a1T2-4" value="&lt;div&gt;Fragment of another universe&lt;/div&gt;" style="rounded=0;whiteSpace=wrap;html=1;" vertex="1" parent="WIyWlLk6GJQsqaUBKTNV-1">
          <mxGeometry x="180" y="340" width="120" height="60" as="geometry" />
        </mxCell>
        <mxCell id="VmMaW-UGEGGp3QC6a1T2-5" value="Trains being delayed consistantly" style="rounded=0;whiteSpace=wrap;html=1;" vertex="1" parent="WIyWlLk6GJQsqaUBKTNV-1">
          <mxGeometry x="260" y="250" width="120" height="60" as="geometry" />
        </mxCell>
        <mxCell id="VmMaW-UGEGGp3QC6a1T2-16" style="edgeStyle=none;curved=1;rounded=0;orthogonalLoop=1;jettySize=auto;html=1;exitX=1;exitY=0.5;exitDx=0;exitDy=0;fontSize=12;startSize=8;endSize=8;" edge="1" parent="WIyWlLk6GJQsqaUBKTNV-1" source="VmMaW-UGEGGp3QC6a1T2-6">
          <mxGeometry relative="1" as="geometry">
            <mxPoint x="570.3333333333333" y="530" as="targetPoint" />
            <Array as="points">
              <mxPoint x="650" y="430" />
            </Array>
          </mxGeometry>
        </mxCell>
        <mxCell id="VmMaW-UGEGGp3QC6a1T2-18" style="edgeStyle=none;curved=1;rounded=0;orthogonalLoop=1;jettySize=auto;html=1;exitX=0;exitY=0.5;exitDx=0;exitDy=0;fontSize=12;startSize=8;endSize=8;entryX=0.5;entryY=0;entryDx=0;entryDy=0;" edge="1" parent="WIyWlLk6GJQsqaUBKTNV-1" source="VmMaW-UGEGGp3QC6a1T2-6" target="VmMaW-UGEGGp3QC6a1T2-9">
          <mxGeometry relative="1" as="geometry">
            <mxPoint x="390.0000000000001" y="420" as="targetPoint" />
          </mxGeometry>
        </mxCell>
        <mxCell id="VmMaW-UGEGGp3QC6a1T2-19" style="edgeStyle=none;curved=1;rounded=0;orthogonalLoop=1;jettySize=auto;html=1;exitX=0;exitY=0.5;exitDx=0;exitDy=0;entryX=1;entryY=0.5;entryDx=0;entryDy=0;fontSize=12;startSize=8;endSize=8;" edge="1" parent="WIyWlLk6GJQsqaUBKTNV-1" source="VmMaW-UGEGGp3QC6a1T2-6" target="VmMaW-UGEGGp3QC6a1T2-8">
          <mxGeometry relative="1" as="geometry" />
        </mxCell>
        <mxCell id="VmMaW-UGEGGp3QC6a1T2-23" style="edgeStyle=none;curved=1;rounded=0;orthogonalLoop=1;jettySize=auto;html=1;exitX=0.5;exitY=0;exitDx=0;exitDy=0;entryX=1;entryY=0.5;entryDx=0;entryDy=0;fontSize=12;startSize=8;endSize=8;" edge="1" parent="WIyWlLk6GJQsqaUBKTNV-1" source="VmMaW-UGEGGp3QC6a1T2-6" target="VmMaW-UGEGGp3QC6a1T2-5">
          <mxGeometry relative="1" as="geometry" />
        </mxCell>
        <mxCell id="VmMaW-UGEGGp3QC6a1T2-6" value="Isolated in time and space" style="rounded=0;whiteSpace=wrap;html=1;" vertex="1" parent="WIyWlLk6GJQsqaUBKTNV-1">
          <mxGeometry x="450" y="340" width="120" height="60" as="geometry" />
        </mxCell>
        <mxCell id="VmMaW-UGEGGp3QC6a1T2-20" style="edgeStyle=none;curved=1;rounded=0;orthogonalLoop=1;jettySize=auto;html=1;exitX=1;exitY=0.5;exitDx=0;exitDy=0;entryX=0;entryY=0.5;entryDx=0;entryDy=0;fontSize=12;startSize=8;endSize=8;" edge="1" parent="WIyWlLk6GJQsqaUBKTNV-1" source="VmMaW-UGEGGp3QC6a1T2-7" target="VmMaW-UGEGGp3QC6a1T2-5">
          <mxGeometry relative="1" as="geometry" />
        </mxCell>
        <mxCell id="VmMaW-UGEGGp3QC6a1T2-21" style="edgeStyle=none;curved=1;rounded=0;orthogonalLoop=1;jettySize=auto;html=1;exitX=0.5;exitY=1;exitDx=0;exitDy=0;entryX=0.5;entryY=0;entryDx=0;entryDy=0;fontSize=12;startSize=8;endSize=8;" edge="1" parent="WIyWlLk6GJQsqaUBKTNV-1" source="VmMaW-UGEGGp3QC6a1T2-7" target="VmMaW-UGEGGp3QC6a1T2-8">
          <mxGeometry relative="1" as="geometry" />
        </mxCell>
        <mxCell id="VmMaW-UGEGGp3QC6a1T2-24" style="edgeStyle=none;curved=1;rounded=0;orthogonalLoop=1;jettySize=auto;html=1;exitX=1;exitY=0.5;exitDx=0;exitDy=0;entryX=0;entryY=0.5;entryDx=0;entryDy=0;fontSize=12;startSize=8;endSize=8;" edge="1" parent="WIyWlLk6GJQsqaUBKTNV-1" source="VmMaW-UGEGGp3QC6a1T2-7" target="VmMaW-UGEGGp3QC6a1T2-6">
          <mxGeometry relative="1" as="geometry" />
        </mxCell>
        <mxCell id="VmMaW-UGEGGp3QC6a1T2-26" style="edgeStyle=none;curved=1;rounded=0;orthogonalLoop=1;jettySize=auto;html=1;exitX=0;exitY=0.5;exitDx=0;exitDy=0;entryX=0;entryY=0.5;entryDx=0;entryDy=0;fontSize=12;startSize=8;endSize=8;" edge="1" parent="WIyWlLk6GJQsqaUBKTNV-1" source="VmMaW-UGEGGp3QC6a1T2-7" target="VmMaW-UGEGGp3QC6a1T2-2">
          <mxGeometry relative="1" as="geometry">
            <Array as="points">
              <mxPoint x="70" y="230" />
            </Array>
          </mxGeometry>
        </mxCell>
        <mxCell id="VmMaW-UGEGGp3QC6a1T2-7" value="Only accessible through certain means (trains - see the station)" style="rounded=0;whiteSpace=wrap;html=1;" vertex="1" parent="WIyWlLk6GJQsqaUBKTNV-1">
          <mxGeometry x="100" y="250" width="120" height="60" as="geometry" />
        </mxCell>
        <mxCell id="VmMaW-UGEGGp3QC6a1T2-8" value="&lt;div&gt;- no jobs &lt;br&gt;&lt;/div&gt;&lt;div&gt;- no apartments&lt;/div&gt;&lt;div&gt;- no inhabitants&amp;nbsp; &lt;br&gt;&lt;/div&gt;" style="rounded=0;whiteSpace=wrap;html=1;" vertex="1" parent="WIyWlLk6GJQsqaUBKTNV-1">
          <mxGeometry x="100" y="430" width="120" height="60" as="geometry" />
        </mxCell>
        <mxCell id="VmMaW-UGEGGp3QC6a1T2-9" value="Nothing ever changes" style="rounded=0;whiteSpace=wrap;html=1;" vertex="1" parent="WIyWlLk6GJQsqaUBKTNV-1">
          <mxGeometry x="320" y="430" width="120" height="60" as="geometry" />
        </mxCell>
        <mxCell id="VmMaW-UGEGGp3QC6a1T2-10" value="The weather / temperature*" style="rounded=0;whiteSpace=wrap;html=1;" vertex="1" parent="WIyWlLk6GJQsqaUBKTNV-1">
          <mxGeometry x="450" y="500" width="120" height="60" as="geometry" />
        </mxCell>
        <mxCell id="VmMaW-UGEGGp3QC6a1T2-11" value="Lack of (living) birds" style="rounded=0;whiteSpace=wrap;html=1;" vertex="1" parent="WIyWlLk6GJQsqaUBKTNV-1">
          <mxGeometry x="450" y="585" width="120" height="60" as="geometry" />
        </mxCell>
        <mxCell id="VmMaW-UGEGGp3QC6a1T2-13" style="edgeStyle=none;curved=1;rounded=0;orthogonalLoop=1;jettySize=auto;html=1;entryX=-0.025;entryY=0.581;entryDx=0;entryDy=0;entryPerimeter=0;fontSize=12;startSize=8;endSize=8;" edge="1" parent="WIyWlLk6GJQsqaUBKTNV-1" source="VmMaW-UGEGGp3QC6a1T2-4" target="VmMaW-UGEGGp3QC6a1T2-0">
          <mxGeometry relative="1" as="geometry">
            <Array as="points">
              <mxPoint y="350" />
            </Array>
          </mxGeometry>
        </mxCell>
        <mxCell id="VmMaW-UGEGGp3QC6a1T2-17" style="edgeStyle=none;curved=1;rounded=0;orthogonalLoop=1;jettySize=auto;html=1;exitX=1;exitY=0.5;exitDx=0;exitDy=0;entryX=1;entryY=0.5;entryDx=0;entryDy=0;fontSize=12;startSize=8;endSize=8;" edge="1" parent="WIyWlLk6GJQsqaUBKTNV-1" source="VmMaW-UGEGGp3QC6a1T2-10" target="VmMaW-UGEGGp3QC6a1T2-11">
          <mxGeometry relative="1" as="geometry">
            <Array as="points">
              <mxPoint x="620" y="580" />
            </Array>
          </mxGeometry>
        </mxCell>
        <mxCell id="VmMaW-UGEGGp3QC6a1T2-28" value="&lt;p style=&quot;line-height: 100%; font-size: 11px;&quot;&gt;&lt;font style=&quot;font-size: 11px;&quot;&gt;*never warm, usually cloudy, cold, even logically it shouldn&#39;t be&lt;br&gt;&lt;/font&gt;&lt;/p&gt;" style="text;html=1;align=center;verticalAlign=middle;whiteSpace=wrap;rounded=0;fontSize=16;" vertex="1" parent="WIyWlLk6GJQsqaUBKTNV-1">
          <mxGeometry x="75" y="585" width="170" height="30" as="geometry" />
        </mxCell>
      </root>
    </mxGraphModel>
  </diagram>
</mxfile>
